<?xml version="1.0" encoding="UTF-8" standalone="no"?>
<svg
   version="1.0"
   width="160.000000pt"
   height="160.000000pt"
   viewBox="0 0 160.000000 160.000000"
   preserveAspectRatio="xMidYMid meet"
   id="svg352"
   sodipodi:docname="clock.svg"
   inkscape:version="1.2.1 (9c6d41e410, 2022-07-14)"
   xmlns:inkscape="http://www.inkscape.org/namespaces/inkscape"
   xmlns:sodipodi="http://sodipodi.sourceforge.net/DTD/sodipodi-0.dtd"
   xmlns="http://www.w3.org/2000/svg"
   xmlns:svg="http://www.w3.org/2000/svg">
  <defs
     id="defs356" />
  <sodipodi:namedview
     id="namedview354"
     pagecolor="#ffffff"
     bordercolor="#000000"
     borderopacity="0.25"
     inkscape:showpageshadow="2"
     inkscape:pageopacity="0.0"
     inkscape:pagecheckerboard="0"
     inkscape:deskcolor="#d1d1d1"
     inkscape:document-units="pt"
     showgrid="false"
     inkscape:zoom="3.9234375"
     inkscape:cx="65.886101"
     inkscape:cy="106.53923"
     inkscape:window-width="1920"
     inkscape:window-height="1017"
     inkscape:window-x="1912"
     inkscape:window-y="-8"
     inkscape:window-maximized="1"
     inkscape:current-layer="g350" />
  <g
     transform="translate(0.000000,160.000000) scale(0.100000,-0.100000)"
     fill="#000000"
     stroke="none"
     id="g350">
    <path
       d="M690 1569 c-316 -48 -571 -283 -647 -597 -21 -88 -21 -256 0 -344 57 -233 202 -416 415 -522 110 -56 206 -78 342 -78 222 -1 409 79 562 239 141 148 211 325 211 533 0 301 -159 558 -431 694 -132 67 -311 96 -452 75z m230 -80 c187 -30 370 -155 475 -324 138 -221 138 -513 0 -732 -212 -335 -647 -433 -974 -219 -377 247 -430 770 -109 1083 168 163 378 230 608 192z"
       id="path346"
       style="fill:#aaabff;fill-opacity:1" />
    <path
       d="M762 1208 c-9 -9 -12 -68 -12 -204 l0 -193 113 -115 c114 -116 121 -121 151 -110 36 14 15 50 -84 149 l-100 100 0 180 c0 185 -4 205 -40 205 -9 0 -21 -5 -28 -12z"
       id="path348"
       style="fill:#aaabff;fill-opacity:1" />
  </g>
</svg>
